<?xml version="1.0" encoding="UTF-8"?>
<svg xmlns="http://www.w3.org/2000/svg" xmlns:xlink="http://www.w3.org/1999/xlink" width="50px" height="50px" viewBox="0 0 50 50" version="1.1">
<g id="surface1">
<path style=" stroke:none;fill-rule:nonzero;fill:rgb(0%,0%,0%);fill-opacity:1;" d="M 28.75 12.1875 C 28.28125 12.863281 27.761719 13.699219 27.578125 14.0625 L 27.238281 14.714844 L 27.082031 14.0625 C 26.953125 13.488281 26.875 13.566406 26.300781 14.84375 C 25.730469 16.09375 25.652344 16.640625 25.652344 19.140625 C 25.652344 21.824219 25.703125 22.109375 26.457031 23.699219 C 27.839844 26.535156 27.628906 26.457031 30.441406 25.078125 C 33.566406 23.542969 35.128906 23.332031 36.769531 24.269531 C 37.394531 24.636719 38.359375 25 38.90625 25.078125 C 39.84375 25.234375 40.339844 25.597656 40.363281 26.09375 C 40.363281 26.222656 39.921875 26.300781 39.402344 26.300781 C 38.722656 26.300781 38.515625 26.378906 38.777344 26.535156 C 39.0625 26.71875 38.75 26.980469 37.605469 27.550781 C 36.769531 27.96875 35.859375 28.566406 35.597656 28.828125 C 35.15625 29.347656 34.269531 32.8125 34.425781 33.488281 C 34.558594 34.0625 37.03125 32.761719 38.253906 31.484375 C 39.269531 30.441406 39.738281 29.582031 42.527344 23.644531 C 44.035156 20.46875 45.363281 19.035156 47.683594 18.203125 L 49.347656 17.578125 L 48.308594 17.394531 C 47.734375 17.292969 46.71875 17.214844 46.042969 17.214844 C 44.871094 17.1875 44.402344 16.875 45.128906 16.589844 C 45.285156 16.511719 44.84375 16.433594 44.113281 16.433594 C 41.121094 16.378906 37.238281 18.386719 35.546875 20.832031 C 35.15625 21.40625 34.765625 21.875 34.660156 21.847656 C 34.402344 21.824219 32.1875 18.984375 31.015625 17.214844 C 29.714844 15.183594 29.324219 13.878906 29.558594 12.214844 C 29.660156 11.511719 29.6875 10.9375 29.636719 10.9375 C 29.609375 10.9375 29.191406 11.511719 28.75 12.1875 Z M 28.75 12.1875 "/>
<path style=" stroke:none;fill-rule:nonzero;fill:rgb(0%,0%,0%);fill-opacity:1;" d="M 0.261719 32.550781 L 0.261719 39.582031 L 3.644531 39.582031 L 3.644531 36.589844 C 3.644531 34.949219 3.75 33.59375 3.878906 33.59375 C 4.011719 33.59375 4.246094 33.933594 4.425781 34.375 C 4.921875 35.546875 5.261719 35.703125 7.265625 35.625 L 9.113281 35.546875 L 7.941406 34.0625 C 7.292969 33.230469 6.769531 32.449219 6.769531 32.292969 C 6.769531 32.136719 7.238281 31.433594 7.8125 30.703125 C 8.386719 29.972656 8.855469 29.269531 8.855469 29.140625 C 8.855469 29.011719 8.046875 28.90625 7.058594 28.90625 L 5.261719 28.90625 L 4.503906 30.128906 L 3.777344 31.378906 L 3.699219 28.4375 L 3.621094 25.519531 L 0.261719 25.519531 Z M 0.261719 32.550781 "/>
<path style=" stroke:none;fill-rule:nonzero;fill:rgb(0%,0%,0%);fill-opacity:1;" d="M 21.613281 27.605469 C 21.613281 28.75 21.535156 29.6875 21.433594 29.6875 C 21.300781 29.6875 20.988281 29.503906 20.730469 29.296875 C 19.660156 28.488281 17.8125 28.984375 16.953125 30.3125 L 16.484375 31.015625 L 16.042969 30.339844 C 15.417969 29.402344 14.113281 28.90625 12.316406 28.90625 C 10.46875 28.90625 9.21875 29.503906 8.542969 30.753906 C 7.578125 32.472656 8.332031 34.558594 10.234375 35.441406 C 12.160156 36.300781 14.714844 35.859375 15.988281 34.402344 L 16.484375 33.855469 L 17.238281 34.738281 C 18.230469 35.9375 19.453125 36.199219 20.703125 35.441406 C 21.433594 35.027344 21.613281 35 21.613281 35.285156 C 21.613281 35.597656 22.003906 35.675781 23.308594 35.675781 L 25 35.675781 L 25 34.816406 L 25.027344 33.984375 L 25.546875 34.6875 C 26.484375 35.964844 28.359375 36.199219 29.503906 35.207031 C 29.894531 34.84375 29.949219 34.871094 29.949219 35.234375 C 29.949219 35.597656 30.234375 35.675781 31.640625 35.675781 L 33.332031 35.675781 L 33.332031 28.90625 L 31.769531 28.90625 C 30.625 28.90625 30.15625 29.011719 30.050781 29.296875 C 29.921875 29.636719 29.84375 29.636719 29.347656 29.296875 C 29.035156 29.089844 28.332031 28.90625 27.785156 28.90625 C 26.980469 28.90625 26.589844 29.089844 25.886719 29.792969 L 25 30.675781 L 25 25.519531 L 21.613281 25.519531 Z M 21.613281 27.605469 "/>
</g>
</svg>
